<?xml version="1.0" encoding="utf-8"?>
<!-- Generator: Adobe Illustrator 27.7.0, SVG Export Plug-In . SVG Version: 6.00 Build 0)  -->
<svg version="1.1" id="Layer_1" xmlns="http://www.w3.org/2000/svg" xmlns:xlink="http://www.w3.org/1999/xlink" x="0px" y="0px"
	 viewBox="0 0 349.2 43" style="enable-background:new 0 0 349.2 43;" xml:space="preserve">
<style type="text/css">
	.st0{fill:#0093C6;}
	.st1{fill:#FFFFFF;}
</style>
<g>
	<g>
		<g>
			<path d="M119.8,34c0.5-0.5,0.5-0.7-0.2-0.8v-0.3h2.3v0.3c-0.7,0.1-0.9,0.2-1.6,0.9l-1.2,1.1l1.8,2.5c0.3,0.4,0.5,0.7,1.1,0.7v0.3
				h-2.6v-0.3c0.7-0.1,0.7-0.2,0.5-0.7l-1.5-2.1l-0.7,0.6v1.6c0,0.3,0.1,0.3,0.7,0.4v0.3h-2.6v-0.3c0.7,0,1-0.1,1-0.4v-4.5
				c0-0.2-0.2-0.3-1-0.4v-0.3h2.7V33c-0.8,0-0.9,0.1-0.9,0.4v2.4L119.8,34z"/>
			<path d="M122.9,38.4c0-0.3,0.2-0.6,0.6-0.6s0.6,0.2,0.6,0.6s-0.2,0.6-0.6,0.6S122.9,38.7,122.9,38.4z"/>
			<path d="M129.1,33.9c-0.2-0.5-0.3-0.7-0.9-0.7v-0.3h2.5v0.3c-0.7,0.1-0.8,0.2-0.7,0.6l1.2,3.9h0.1l1.1-3.2
				c0.3-0.9,0.2-1.1-0.6-1.1v-0.3h2.2v0.3c-0.6,0.2-0.8,0.4-1.1,1.1l-1.6,4.6h-0.5l-1.3-3.9L128,39h-0.5l-1.6-5.2
				c-0.1-0.4-0.2-0.5-0.9-0.7v-0.3h2.5v0.3c-0.7,0.1-0.7,0.2-0.7,0.6l1.1,3.8h0.1l1.2-3.3L129.1,33.9z"/>
			<path d="M133.2,38.4c0-0.3,0.2-0.6,0.6-0.6c0.3,0,0.6,0.2,0.6,0.6s-0.2,0.6-0.6,0.6C133.5,39,133.2,38.7,133.2,38.4z"/>
			<path d="M137.6,38.5c0.7,0,1-0.1,1-0.4v-4.5c0-0.2-0.2-0.3-1-0.4v-0.3h2.5c1.8,0,2.4,0.7,2.4,1.5c0,0.5-0.2,1.1-1.4,1.3v0.1
				c1.1,0.1,1.7,0.8,1.7,1.4c0,1-0.7,1.7-2.5,1.7h-2.5L137.6,38.5L137.6,38.5z M140.1,35.5c1.1,0,1.4-0.4,1.4-1.1
				c0-0.7-0.2-1.1-1.4-1.1h-0.7v2.2L140.1,35.5L140.1,35.5z M140.2,38.4c1.4,0,1.6-0.6,1.6-1.3s-0.5-1.2-1.7-1.2h-0.7v2.5H140.2z"/>
			<path d="M145.7,38.1c0,0.3,0.2,0.3,0.9,0.4v0.3h-2.8v-0.3c0.7,0,1-0.1,1-0.4v-4.5c0-0.2-0.2-0.3-1-0.4v-0.3h2.5
				c1.8,0,2.4,0.7,2.4,1.5c0,0.7-0.4,1.2-1.6,1.5V36c1.1,0.1,1.2,0.5,1.4,1.1l0.2,0.8c0.1,0.5,0.2,0.7,0.9,0.7v0.3
				c-0.1,0-0.2,0-0.3,0c-1.3,0-1.5-0.3-1.6-1.1l-0.1-0.7c-0.1-0.8-0.4-1.1-1.4-1.1h-0.7L145.7,38.1L145.7,38.1z M146.4,35.6
				c1.1,0,1.4-0.5,1.4-1.3c0-0.7-0.4-1.1-1.5-1.1h-0.7v2.4C145.6,35.6,146.4,35.6,146.4,35.6z"/>
			<path d="M151.1,37.1v-3.5c0-0.2-0.2-0.3-1-0.4v-0.3h2.7v0.3c-0.8,0-0.9,0.1-0.9,0.4V37c0,1.1,0.7,1.6,1.7,1.6
				c0.5,0,0.8-0.2,1.1-0.4c0.3-0.3,0.4-0.7,0.4-1.3v-2.5c0-0.8-0.2-1-1.1-1.1V33h2.3v0.3c-0.8,0.2-0.9,0.2-0.9,1.1v2.8
				c0,1-0.8,1.9-2.3,1.9C152,39,151.1,38.2,151.1,37.1z"/>
			<path d="M158.2,37.1v-3.5c0-0.2-0.2-0.3-1-0.4v-0.3h2.7v0.3c-0.8,0-0.9,0.1-0.9,0.4V37c0,1.1,0.7,1.6,1.7,1.6
				c0.5,0,0.8-0.2,1.1-0.4c0.3-0.3,0.4-0.7,0.4-1.3v-2.5c0-0.8-0.2-1-1.1-1.1V33h2.3v0.3c-0.8,0.2-0.9,0.2-0.9,1.1v2.8
				c0,1-0.8,1.9-2.3,1.9C159,39,158.2,38.2,158.2,37.1z"/>
			<path d="M165.9,33.9L165.9,33.9v3.4c0,0.8,0.1,1.1,1,1.1v0.3h-2.3v-0.3c0.8-0.2,0.9-0.3,0.9-1.2v-3.4c0-0.3-0.2-0.6-0.9-0.6v-0.3
				h1.7l3.3,4.5l0,0v-3.1c0-0.8-0.2-1-1.1-1.1v-0.3h2.3v0.3c-0.8,0.2-0.9,0.2-0.9,1.1V39h-0.4L165.9,33.9z"/>
		</g>
	</g>
	<g>
		<path d="M35.1,22.6l0.9-0.1c0,0,0.1,0,0.1-0.1v-7.9h-1c0-0.4,0-0.9,0-1.4c0.8,0,2.5-0.1,3.4-0.1c1.6,0,2.8,0,3.8,0.4
			c0.7,0.3,1.4,1.2,1.4,2.1c0,1.1-0.9,2.1-2,2.4V18c1.4,0.2,2.5,1.3,2.5,2.7c0,1.7-1.7,3.1-4.6,3.1c-0.6,0-2.1,0-2.4,0
			c-0.6,0-1.6,0-2.4,0C35.1,23.5,35.1,23,35.1,22.6z M38.8,22.1c0,0.3,0.3,0.5,0.7,0.5c1.1,0,1.9-0.6,1.9-1.6c0-0.9-0.8-1.8-2.1-1.8
			c-0.2,0-0.4,0-0.4,0L38.8,22.1z M38.9,17.7c0.1,0,0.2,0,0.4,0c1.1,0,1.8-0.7,1.8-1.6s-0.7-1.6-1.6-1.6c-0.2,0-0.5,0-0.6,0.1
			C38.9,14.6,38.9,17.7,38.9,17.7z"/>
		<path d="M45.8,14.5c0-0.5,0-0.9,0-1.4c0.7,0,1.7,0,2.5,0s1.7,0,2.5,0c0,0.4,0,0.9,0,1.4l-1.1,0.1c0,0,0,0,0,0.1l-0.1,7.8l1.1,0.1
			c0,0.5,0,0.9,0,1.4c-0.7,0-1.6,0-2.5,0c-0.7,0-1.6,0-2.5,0c0-0.5,0-1,0-1.5h0.9c0,0,0.1,0,0.1-0.1v-7.9H45.8z"/>
		<path d="M52.2,14.5c0-0.5,0-0.9,0-1.4c0.7,0,1.6,0,2.4,0c0.7,0,1.6,0,2.5,0c0,0.4,0,0.9,0,1.4H56c0,0-0.1,0-0.1,0.1l0.1,7.6
			c0,0.3,0,0.3,0.7,0.3s1.1-0.1,1.3-0.2c0.2,0,0.2-0.2,0.2-0.3l0.6-1.7c0.6,0.1,1.1,0.2,1.6,0.3c-0.2,1.1-0.4,2.2-0.7,3.3
			c-0.8,0-3,0-5.3,0c-0.7,0-1.6,0-2.3,0c0-0.5,0-0.9,0-1.4H53c0,0,0.1,0,0.1-0.1v-7.9C53.1,14.5,52.2,14.5,52.2,14.5z"/>
		<path d="M61.4,23.1C61.4,23.1,61.5,23.1,61.4,23.1c1.2-3,2.8-7.1,3.9-10.1c0.2,0,0.6,0,0.9,0c1.1,3,2.5,7.1,3.6,10.2l1,0.1
			c0,0.2,0,0.6,0,0.7c-0.5,0-1.1,0-1.6,0c-0.7,0-1.6,0-2.2,0c0-0.2,0-0.6,0-0.8l1.3-0.1c0,0,0.1,0,0-0.1c-0.2-0.7-0.6-1.6-0.9-2.4
			c0-0.1-0.1-0.1-0.2-0.1h-3.9c-0.2,0.8-0.6,1.8-0.9,2.5l1.5,0.1c0,0.2,0,0.6,0,0.7c-0.6,0-1.4,0-2.2,0c-0.5,0-1,0-1.5,0
			c0-0.2,0-0.6,0-0.8L61.4,23.1z M65.6,14.8c-0.6,1.6-1.2,3.4-1.7,4.8c0,0.1,0,0.1,0,0.1h3.5C66.8,18.2,66.2,16.3,65.6,14.8
			L65.6,14.8z"/>
		<path d="M71.5,23.1h1.1c0,0,0.1,0,0.1-0.1v-9.1h-1.2c0-0.2,0-0.6,0-0.7c0.7,0,2.1,0,3,0c1.4,0,2.4,0.1,3.1,0.5
			c0.7,0.3,1.3,1.1,1.3,2.1c0,1.2-0.9,2.1-2.1,2.5v0.1c1.5,0.2,2.7,1.3,2.7,2.6c0,1.9-1.6,3.1-4.2,3.1c-0.4,0-1.7,0-2.1,0
			c-0.6,0-1.3,0-2,0C71.5,23.6,71.5,23.4,71.5,23.1z M74.1,22.6c0,0.5,0.3,0.6,1.4,0.6c1.3,0,2.8-0.6,2.8-2.3c0-1-0.8-2.3-3.1-2.3
			c-0.6,0-0.9,0-1,0L74.1,22.6z M74.1,17.9c0.1,0,0.4,0,0.8,0c1.5,0,2.8-0.8,2.8-2.1c0-1.1-0.8-2.1-2.6-2.1c-0.6,0-0.8,0-0.9,0.1
			L74.1,17.9L74.1,17.9z"/>
		<path d="M82.7,22.7c-0.9-0.9-1.5-2.4-1.5-4.1c0-2.1,1.1-3.9,2.4-4.8c1-0.7,2.1-0.9,3.1-0.9s2,0.2,2.8,0.8c1.2,0.9,2.1,2.5,2.1,4.4
			c0,1.7-0.6,3.4-1.7,4.6c-0.9,0.9-2,1.3-3.6,1.3C84.7,24,83.5,23.5,82.7,22.7z M88.8,22.2c0.7-0.7,1.2-1.9,1.2-3.7
			c0-1.6-0.4-2.9-1.2-3.8c-0.6-0.7-1.4-1-2.4-1c-0.9,0-1.7,0.2-2.4,0.9c-0.8,0.7-1.5,2.1-1.5,3.9c0,1.6,0.3,2.8,1.2,3.8
			c0.7,0.7,1.6,1,2.5,1C87.3,23.2,88.2,22.9,88.8,22.2z"/>
		<path d="M94.1,23.1C94.2,23.1,94.2,23.1,94.1,23.1l0.1-9.2L93,13.8c0-0.2,0-0.6,0-0.7c0.7,0,1.6,0,2.4,0c1.9,2.8,4.2,6.2,6,9h0.1
			c0-2.8,0-5.4-0.1-8.2h-1.6c0-0.2,0-0.6,0-0.8c0.6,0,1.3,0,2.1,0c0.6,0,1.1,0,1.6,0c0,0.2,0,0.6,0,0.7l-1,0.1c0,0-0.1,0-0.1,0.1
			l-0.1,9.9c-0.2,0.1-0.6,0.2-0.9,0.2c-1.7-2.4-4-5.7-6.2-9h-0.1c0,2.7,0,5.3,0,8h1.6c0,0.2,0,0.6,0,0.8c-0.7,0-1.5,0-2.2,0
			c-0.6,0-1.1,0-1.6,0c0-0.2,0-0.6,0-0.8L94.1,23.1L94.1,23.1z"/>
		<path d="M106.1,23.1L106.1,23.1l0.1-9.2l-1.2-0.1c0-0.2,0-0.6,0-0.7c0.7,0,1.6,0,2.4,0c1.9,2.8,4.2,6.2,6,9h0.1
			c0-2.8,0-5.4-0.1-8.2h-1.6c0-0.2,0-0.6,0-0.8c0.6,0,1.3,0,2.1,0c0.6,0,1.1,0,1.6,0c0,0.2,0,0.6,0,0.7l-1,0.1c0,0-0.1,0-0.1,0.1
			l-0.1,9.9c-0.2,0.1-0.6,0.2-0.9,0.2c-1.7-2.4-4-5.7-6.2-9h-0.1c0,2.7,0,5.3,0,8h1.6c0,0.2,0,0.6,0,0.8c-0.7,0-1.5,0-2.2,0
			c-0.6,0-1.1,0-1.6,0c0-0.2,0-0.6,0-0.8L106.1,23.1L106.1,23.1z"/>
		<path d="M118.1,23.1C118.1,23.1,118.2,23.1,118.1,23.1l0.1-9.2l-1.2-0.1c0-0.2,0-0.6,0-0.7c0.6,0,1.3,0,2,0c0.5,0,3.3,0,3.7,0
			c0.7,0,1.1,0,1.5,0c0.1,0.8,0.2,1.6,0.2,2.5c-0.2,0-0.6,0.1-0.9,0.1l-0.2-1.5c0-0.2-0.2-0.2-0.4-0.2c-0.4-0.1-1.6-0.1-2.6-0.1
			c-0.2,0-0.4,0-0.5,0V18c0.9,0,1.7,0,2.6,0c0.2,0,0.3-0.2,0.4-0.3l0.1-0.8c0.2,0,0.6,0,0.9,0c0,0.6,0,1.1,0,1.6s0,1.1,0,1.6
			c-0.2,0-0.6,0-0.9,0l-0.1-0.9c0-0.2-0.2-0.3-0.4-0.3c-0.7,0-1.6,0-2.6,0v4c0,0.2,0.1,0.3,0.9,0.3c1.3,0,2.3-0.1,2.6-0.2
			c0.2,0,0.2-0.2,0.2-0.3l0.6-1.6c0.2,0.1,0.6,0.2,0.9,0.2c-0.2,0.9-0.4,1.7-0.6,2.6c-0.7,0-3,0-5.2,0c-0.7,0-1.3,0-2,0
			c0-0.2,0-0.6,0-0.8C117.2,23.1,118.1,23.1,118.1,23.1z"/>
		<path d="M126.3,13.9c0-0.2,0-0.6,0-0.8c0.9,0,2.1,0,3,0c1,2.5,2.2,5.7,3.5,8.7h0.1c1.1-2.9,2.4-6.1,3.5-8.7c0.9,0,2,0,2.8,0
			c0,0.2,0,0.6,0,0.8h-1.1c0,0-0.1,0-0.1,0.1c0,2.8,0,6.2,0,9.1l1.1,0.1c0,0.2,0,0.6,0,0.7c-0.6,0-1.2,0-1.8,0c-0.7,0-1.4,0-2,0
			c0-0.2,0-0.6,0-0.8l1.3-0.1c0.1,0,0.1,0,0.1-0.1c0-2.5,0-5.7-0.1-8.4h-0.1c-1.5,3.9-2.7,6.6-3.6,8.7c-0.2,0-0.4,0-0.7,0
			c-1.1-2.4-2.4-5.3-3.6-8.9h-0.2c0,2.7-0.1,5.8-0.1,8.5l1.5,0.1c0,0.2,0,0.6,0,0.7c-0.6,0-1.3,0-2.1,0c-0.6,0-1.1,0-1.6,0
			c0-0.2,0-0.6,0-0.8l1.1-0.1c0,0,0.1,0,0.1-0.1c0-2.8,0.1-6.4,0.1-9.1L126.3,13.9z"/>
		<path d="M142,23.1L142,23.1l0.1-9.2l-1.2-0.1c0-0.2,0-0.6,0-0.7c0.6,0,1.3,0,2,0c0.5,0,3.3,0,3.7,0c0.7,0,1.1,0,1.5,0
			c0.1,0.8,0.2,1.6,0.2,2.5c-0.2,0-0.6,0.1-0.9,0.1l-0.2-1.5c0-0.2-0.2-0.2-0.4-0.2c-0.4-0.1-1.6-0.1-2.6-0.1c-0.2,0-0.4,0-0.5,0V18
			c0.9,0,1.7,0,2.6,0c0.2,0,0.3-0.2,0.4-0.3l0.1-0.8c0.2,0,0.6,0,0.9,0c0,0.6,0,1.1,0,1.6s0,1.1,0,1.6c-0.2,0-0.6,0-0.9,0l-0.1-0.9
			c0-0.2-0.2-0.3-0.4-0.3c-0.7,0-1.6,0-2.6,0v4c0,0.2,0.1,0.3,0.9,0.3c1.3,0,2.3-0.1,2.6-0.2c0.2,0,0.2-0.2,0.2-0.3l0.6-1.6
			c0.2,0.1,0.6,0.2,0.9,0.2c-0.2,0.9-0.4,1.7-0.6,2.6c-0.7,0-3,0-5.2,0c-0.7,0-1.3,0-2,0c0-0.2,0-0.6,0-0.8
			C141.1,23.1,142,23.1,142,23.1z"/>
		<path d="M151.2,23.1C151.3,23.1,151.3,23.1,151.2,23.1l0.1-9.2l-1.2-0.1c0-0.2,0-0.6,0-0.7c0.7,0,1.6,0,2.4,0c1.9,2.8,4.2,6.2,6,9
			h0.1c0-2.8,0-5.4-0.1-8.2h-1.6c0-0.2,0-0.6,0-0.8c0.6,0,1.3,0,2.1,0c0.6,0,1.1,0,1.6,0c0,0.2,0,0.6,0,0.7l-1,0.1
			c0,0-0.1,0-0.1,0.1l-0.1,9.9c-0.2,0.1-0.6,0.2-0.9,0.2c-1.7-2.4-4-5.7-6.2-9h-0.1c0,2.7,0,5.3,0,8h1.6c0,0.2,0,0.6,0,0.8
			c-0.7,0-1.5,0-2.2,0c-0.6,0-1.1,0-1.6,0c0-0.2,0-0.6,0-0.8L151.2,23.1L151.2,23.1z"/>
		<path d="M165.7,23.1L165.7,23.1l0.1-9.2c-1.4,0-1.8,0-2.1,0.1c-0.3,0-0.4,0.2-0.4,0.3L163,16c-0.2,0-0.6-0.1-0.9-0.1
			c0.1-0.9,0.1-1.9,0.2-2.8c0.3,0,0.9,0,1.6,0c0.3,0,2.3,0,2.8,0c0.6,0,2.4,0,2.8,0c0.7,0,1.1,0,1.5,0c0.1,0.9,0.1,1.8,0.2,2.8
			c-0.2,0-0.6,0.1-0.9,0.1l-0.2-1.6c0-0.2-0.1-0.2-0.4-0.2c-0.5-0.1-0.7-0.1-2.2-0.1l-0.1,9.2l1.6,0.1c0,0.2,0,0.6,0,0.8
			c-0.6,0-1.4,0-2.1,0c-0.7,0-1.5,0-2.1,0c0-0.2,0-0.6,0-0.8L165.7,23.1z"/>
		<g>
			<path class="st0" d="M13.7,13.4V19c0,0.7-0.6,1.3-1.3,1.3s-1.3-0.6-1.3-1.3v-5.7c0-0.7,0.6-1.3,1.3-1.3
				C13.1,12.1,13.7,12.7,13.7,13.4"/>
			<path d="M22.2,19.1c0-2.7-1.1-5.1-2.8-6.8c-1.8-1.7-4.2-2.9-6.9-2.9s-5.2,1-6.9,2.7s-2.8,4.2-2.8,6.8s1.1,5.1,2.8,6.8
				s4.2,2.8,6.8,2.8s5.1-1.1,6.8-2.8C21.2,24.3,22.2,21.7,22.2,19.1 M25.8,8.4c0.5,0.5,0.5,1.3,0,1.7s-1.3,0.5-1.7,0l-0.5-0.5
				l-1.7,1.6c1.7,2.1,2.8,4.8,2.8,7.7c0,6.7-5.4,12.2-12.2,12.2C5.7,31.3,0.3,25.8,0.3,19c0-6.3,4.8-11.5,10.9-12.2V5.2
				c0-0.7,0.6-1.3,1.3-1.3s1.3,0.6,1.3,1.3V7c2.4,0.2,4.6,1.2,6.4,2.7L22,8l-0.5-0.5C21,7,21,6.2,21.5,5.8c0.5-0.4,1.3-0.5,1.7,0
				l1.3,1.3L25.8,8.4z"/>
		</g>
	</g>
</g>
<path d="M313.9,25.2c-0.8-0.8-4.5-4.3-5.5-7.3c-0.2-0.6-0.3-1.2-0.3-1.8c0-0.5,0.1-1,0.3-1.5c0.4-1.1,1.4-2.4,2.5-3.4
	c0.4-0.4,2.3-2.3,2.9-2.9c0.1-0.1,0.2-0.3,0.3-0.5c0-0.2,0-0.6,0-0.7V6.7L303,15.5c-0.1,0.1-0.3,0.3-0.4,0.5
	c-0.1-0.2-0.3-0.4-0.4-0.5L291,6.8v18.7l11.2-8.7c0.1-0.1,0.3-0.3,0.4-0.5c0.1,0.2,0.2,0.3,0.2,0.4c0.8,0.8,4.5,4.3,5.5,7.3
	c0.2,0.6,0.3,1.2,0.3,1.8c0,0.5-0.1,1-0.3,1.5c-0.4,1.1-1.4,2.3-2.5,3.4c-0.4,0.4-2.3,2.3-2.9,2.9c-0.1,0.1-0.2,0.3-0.3,0.5
	c0,0.1,0,0.6,0,0.8v0.4l11.2-8.7c0.2-0.1,0.4-0.3,0.4-0.7C314.2,25.4,314,25.2,313.9,25.2z M296.2,20.6c-0.9,0.9-1.8,1.7-2.6,2.4
	c-0.9,0.7-1.5,1.2-2,1.6v-0.1c0,0,0-0.1,0-0.2c1-0.9,4.7-3.7,5.8-6.5c0.2-0.6,0.4-1.1,0.4-1.7s-0.1-1.1-0.4-1.7
	c-1.1-2.7-4.9-5.6-5.8-6.5c0,0,0-0.1,0-0.2s0-0.1,0-0.1c0.5,0.4,1.1,0.9,2,1.6c0.8,0.7,1.7,1.4,2.6,2.4c1.4,1.4,2.4,3,2.4,4.5
	C298.6,17.6,297.6,19.2,296.2,20.6z M309.1,11.7c0.9-0.9,1.2-1.2,2-1.8c0.4-0.3,0.7-0.5,0.9-0.7c0.2-0.1,0.4-0.3,0.4-0.3l0,0
	c0,0.1,0,0.2-0.1,0.3s-0.1,0.1-0.3,0.3c-1.2,1-3.4,3-4.2,5.1c-0.2,0.6-0.3,1.1-0.3,1.7c0,0.5,0.1,1.1,0.3,1.7
	c0.3,0.8,0.7,1.5,1.2,2.3c0.2,0.4,0.6,0.8,0.8,1.1c0.1,0.1,0,0.1-0.1,0c-0.1,0-0.1,0-0.2-0.1s-0.1-0.1-0.2-0.1
	c-0.1-0.1-0.2-0.1-0.3-0.2c-0.1-0.1-0.2-0.2-0.3-0.3c-1.1-1.2-2.1-2.8-2.1-4.3C306.7,14.6,307.7,13.1,309.1,11.7z M307.9,30
	c-0.9,0.9-1.1,1.1-1.9,1.8c-0.3,0.3-0.7,0.5-0.9,0.8c-0.2,0.2-0.4,0.3-0.4,0.3l0,0c0-0.1,0-0.2,0.1-0.3s0.1-0.1,0.3-0.3
	c1.2-1,3.1-3,3.9-4.9c0.2-0.6,0.3-1.1,0.3-1.7s-0.1-1.1-0.3-1.7c-0.3-0.8-0.7-1.5-1.2-2.3c-0.2-0.4-0.5-0.8-0.7-1
	c-0.1-0.1,0.1,0,0.2,0s0.2,0.1,0.3,0.1c0.2,0.2,0.3,0.3,0.5,0.5c1.1,1.3,2,2.8,2,4.3C310,27.1,309.2,28.6,307.9,30z"/>
<g>
	<path d="M330.3,28.3c0.9,0,1.8,0,2.7,0c0-6.4,0-12.8,0-19.1c-0.9,0-1.8,0-2.7,0C330.3,15.6,330.3,21.9,330.3,28.3z"/>
	<path d="M342,9.2c0,0.8,0,1.5,0,2.3c0.7,0,1.4,0,2.1,0c0,5.6,0,11.2,0,16.8c0.9,0,1.8,0,2.7,0c0-5.6,0-11.2,0-16.8
		c0.7,0,1.4,0,2.1,0c0-0.8,0-1.5,0-2.3C346.6,9.2,344.3,9.2,342,9.2z"/>
	<path d="M323.7,28.3c0.9,0,1.8,0,2.7,0c0-2.9,0-5.8,0-8.7c0.8,0,1.5,0,2.3,0c0-0.8,0-1.5,0-2.3c-0.8,0-1.5,0-2.3,0c0-2,0-3.9,0-5.9
		c1,0,2,0,3,0c0-0.8,0-1.5,0-2.3c-1.9,0-3.7,0-5.6,0C323.7,15.6,323.7,21.9,323.7,28.3z"/>
	<path d="M342.4,25.8c0-0.8,0-1.7,0-2.5s0-1.7-0.1-2.5c0-0.8-0.1-1.7-0.1-2.5c-0.1-0.8-0.1-1.6-0.2-2.4c-0.1-0.8-0.2-1.6-0.4-2.3
		c-0.2-0.8-0.4-1.5-0.6-2.2s-0.5-1.4-0.9-2c-1.9,0-3.7,0-5.6,0c0,6.4,0,12.8,0,19.1c0.8,0,1.6,0,2.4,0c0-2.9,0-5.8,0-8.7
		c1,0,2,0,2.9,0c0.1,1.4,0.1,2.9,0.1,4.3c0,0.7,0,1.5,0,2.2s0,1.5,0,2.2c0.8,0,1.7,0,2.5,0c0-0.4,0-0.8,0-1.3
		C342.4,26.6,342.4,26.2,342.4,25.8z M336.8,17.4c0-2,0-3.9,0-5.9c0.5,0,1,0,1.5,0c0.6,1.7,1,3.7,1.2,5.9
		C338.7,17.4,337.8,17.4,336.8,17.4z"/>
</g>
<g>
	<path d="M285.2,21.4l-21-2.3h0l-5.8,3c0,0,0,0,0,0c0,0,0,0,0,0h25.4L285.2,21.4C285.2,21.4,285.2,21.4,285.2,21.4
		C285.2,21.4,285.2,21.4,285.2,21.4L285.2,21.4z"/>
	<path d="M266.1,8.1c6.1,0,11,4.9,11,11c0,0.2,0,0.4,0,0.6l0.8,0.1c0-0.2,0-0.4,0-0.6c0-6.5-5.3-11.8-11.9-11.8c-5,0-9.5,3.2-11.2,8
		h0.9C257.4,11,261.5,8.2,266.1,8.1z"/>
	<path d="M266.1,30.1c-6.1,0-11-4.9-11-11c0-0.2,0-0.4,0-0.6l-0.8-0.1c0,0.2,0,0.4,0,0.6c0,6.5,5.3,11.8,11.9,11.8
		c5,0,9.5-3.2,11.2-8h-0.9C274.8,27.3,270.7,30.1,266.1,30.1z"/>
	<path d="M268.1,19.1L268.1,19.1l5.8-3c0,0,0,0,0,0c0,0,0,0,0,0h-25.4l-1.4,0.7c0,0,0,0,0,0c0,0,0,0,0,0L268.1,19.1z"/>
</g>
<path d="M231.3,6.6c-5.6,0-10.1,5.6-10.1,12.5s4.5,12.5,10.1,12.5c5.6,0,10.1-5.6,10.1-12.5S236.9,6.6,231.3,6.6z M223.1,23.4
	L223.1,23.4c-0.3-1.1-0.4-2-0.4-2l0,0l0,0l8.6-6.4l8.7,6.4l0,0c0,0-0.1,0.9-0.4,1.9l0,0l0,0l0,0l-8.2-6.1L223.1,23.4L223.1,23.4z
	 M231.3,30.4c-2.9,0-5.6-1.8-7.3-4.8l0,0l7.3-5.4l7.3,5.4l0,0c0,0,0,0,0,0C236.9,28.6,234.2,30.4,231.3,30.4z M231.3,12.1l-8.9,6.6
	l0,0c0.1-2.9,1.1-5.7,2.7-7.7c1.7-2,3.9-3.2,6.2-3.2c2.3,0,4.5,1.1,6.2,3.2c1.7,2,2.6,4.8,2.7,7.7l0,0l0,0L231.3,12.1z"/>
<g>
	<path d="M201.6,31.6c-3.3-1.5-6.1-4-8-7c-1.9-3-2.9-6.5-3.1-11c-0.1-1.5-0.1-3.3,0-5.5l0-0.5l0.5-0.1c3.6-0.6,7.3-0.9,10.8-0.9
		c3.6,0,7.2,0.3,10.8,0.9l0.5,0.1l0,0.5c0.1,2.3,0.1,4.1,0,5.5c-0.2,4.5-1.2,8-3.1,11c-1.9,3-4.7,5.5-8,7l-0.2,0.1L201.6,31.6z"/>
	<g>
		<g>
			<path class="st1" d="M196.8,21.8c-0.1,0-0.1,0-0.1-0.1c0-0.1-0.1-0.6-0.1-0.7c0-0.1,0-0.1,0.1-0.1c0.3-0.1,0.8-0.3,1.3-0.4
				c0.1,0,0.1-0.1,0.2-0.2c0.2-0.3,0.6-1,0.8-1.4c0-0.1,0-0.1,0-0.2l-0.1-0.2c0-0.1-0.1-0.1-0.2-0.1c-0.4-0.1-1-0.2-1.3-0.3
				c-0.1,0-0.1,0-0.2,0l0,0c0.4,0.1,0.8,0.3,1.2,0.4c0,0,0.1,0.1,0.1,0.1l0,0.1c0,0.1,0,0.1,0,0.2c-0.2,0.4-0.5,0.9-0.8,1.2
				c0,0-0.1,0.1-0.1,0.1c-0.3,0.1-0.7,0.2-0.9,0.3c0,0-0.1,0-0.1,0c-0.1-0.1-0.4-0.4-0.4-0.4s0,0.3,0,0.4c0,0,0,0,0,0
				c0.1,0.1,0.1,0.3,0.2,0.5c0,0,0,0.1,0,0.1c0.1,0.2,0.2,0.8,0.2,0.8c0,0.1,0.1,0.1,0.1,0.1c0.1,0,0.4-0.1,0.6-0.2c0,0,0,0,0.1,0
				c0.1-0.1,0.2-0.2,0.2-0.2S196.9,21.8,196.8,21.8z"/>
			<path class="st1" d="M197.5,20c0.2-0.2,0.4-0.5,0.6-0.8l-1.4,1.1C196.9,20.3,197.2,20.2,197.5,20C197.4,20.1,197.5,20.1,197.5,20
				z"/>
			<path class="st1" d="M197.5,15.5l-0.2,0c0,0,0,0,0,0l0,0.3c0,0,0,0,0,0l0.2-0.1c0,0,0.1,0,0.1-0.1
				C197.6,15.7,197.6,15.6,197.5,15.5C197.6,15.5,197.5,15.5,197.5,15.5z"/>
			<path class="st1" d="M195.2,19.1l0.4,0.4l0.1-0.7C195.4,18.8,195.2,19,195.2,19.1z"/>
			<path class="st1" d="M207.2,19c-0.2-0.3-0.9-1.3-1.8-2.3c0,0-0.1-0.1-0.1-0.1l-0.2-0.1c0,0,0.3,1.2,0.4,1.8
				c0,0.1,0.1,0.2,0.1,0.2c0.4,0.4,0.7,0.7,0.9,1.1c0.1,0.1,0.2,0.3,0.2,0.5c0.1,0.9,0,2.3-0.1,3c0,0.1-0.1,0.2-0.2,0.3
				c-0.9,0.7-2.4,2-3.1,2.7c-0.1,0.1-0.1,0.1-0.1,0.2c-0.1,0.1-0.2,0.3-0.2,0.3s-0.2-0.5-0.2-0.7c0-0.1,0-0.2,0-0.3
				c0.1-0.5,0.5-1.8,0.5-2c0,0,0,0,0-0.1v-0.1c-0.1,0.3-0.9,1.9-1,2.4c0,0.1,0,0.2,0,0.2c0.1,0.3,0.4,0.9,0.5,1.2
				c0,0,0.3-0.5,0.5-0.8c0-0.1,0.1-0.1,0.2-0.2c0.5-0.5,2.3-2,3.2-2.6c0.1-0.1,0.1-0.1,0.2-0.3c0.3-1.3,0.5-2.8,0.3-4.3
				C207.3,19.1,207.2,19.1,207.2,19z"/>
			<path class="st1" d="M203.5,15.2c0-0.1,0-0.1,0-0.2c0-0.2-0.1-0.4-0.1-0.5c0,0,0-0.1-0.1-0.1l-0.3-0.1c0,0-0.1,0-0.1,0
				c-0.6,0.1-1.3,0.2-1.8,0.4c0,0-0.1,0-0.1,0.1L201,15c0,0,0,0,0,0.1c0.1,0,0.4,0.1,0.5,0.1c0.1,0,0.1,0,0.1,0
				c0.3-0.1,0.8-0.3,1.2-0.5c0,0,0.1,0,0.1,0l0.2,0.1c0,0,0,0,0.1,0c0,0.1,0.1,0.2,0.1,0.2c0,0,0,0.1,0,0.2
				c-0.1,0.2-0.3,0.5-0.5,0.7c0,0,0,0.1,0,0.1c0.1,0.3,0.3,0.9,0.4,1.2c0,0,0,0.1,0.1,0.1l0.1,0.1c0,0-0.2-1.1-0.3-1.4
				c0,0,0-0.1,0-0.1C203.1,15.7,203.4,15.4,203.5,15.2z"/>
			<path class="st1" d="M209,16.1c0-0.1,0-0.1-0.1-0.2c-0.7-0.5-1.9-1.2-2.7-1.6c-0.1,0-0.2,0-0.3,0c-0.4,0.1-0.9,0.4-1.5,0.6
				c0,0,0.3,0,0.4,0c0.1,0,0.1,0,0.1,0c0.2,0,0.5-0.1,0.8-0.2c0.1,0,0.3,0,0.4,0.1c0.3,0.3,0.9,0.7,1.3,1c0.1,0.1,0.1,0.1,0.2,0.1
				c0.5,0.2,0.8,0.3,0.9,0.4c0.1,0,0.1,0.1,0.2,0.2c0.1,0.5,0.2,1.4,0.3,2c0,0.1,0,0.2,0,0.3c-0.2,0.4-0.5,1.1-0.7,1.5
				c0,0,0,0.1-0.1,0.1c-0.1,0.1-0.2,0.2-0.3,0.2c0,0,0,0,0,0.1c0,0.2,0,0.7,0,0.7c0.5-0.7,1-1.5,1.5-2.4c0-0.1,0.1-0.1,0.1-0.2
				C209.2,18,209.2,16.8,209,16.1z"/>
			<path class="st1" d="M202.1,27.7c-0.1-0.3-0.8-1.8-0.9-2.4c-0.1-0.2-0.1-0.3,0-0.5c0.1-1.4,0.7-3.7,0.7-4c0-0.1,0-0.1,0-0.1
				c0-0.1-0.1-0.5-0.1-0.5c-0.2,0.5-1.1,2.7-1.4,4c-0.1,0.2,0,0.3,0,0.4c0.4,1.1,1.5,3.2,1.8,3.5L202.1,27.7
				C202.1,27.8,202.1,27.8,202.1,27.7z"/>
			<path class="st1" d="M201.1,27.8c0,0-0.2-0.2-0.3-0.2c-0.1-0.1-0.1-0.1-0.1-0.1c-0.5-0.5-2.3-2.6-2.8-3.6
				c-0.1-0.2-0.1-0.2-0.1-0.4c0-0.2,0-0.5,0.1-0.7c0-0.1,0.1-0.2,0.2-0.3c0.3-0.3,0.8-0.8,1-1c0.1-0.1,0.2-0.2,0.2-0.3
				c0.2-0.4,0.9-2,1.2-2.6c0-0.1,0-0.1,0-0.3c0-0.3-0.3-1.2-0.3-1.2l0,0.3c0,0,0,0,0,0.1c0,0.1,0.1,0.6,0.1,0.9c0,0.1,0,0.1-0.1,0.2
				c-0.4,0.7-1.8,2.6-2.6,3.6c-0.1,0.1-0.1,0.2-0.2,0.3c0,0.2-0.1,0.7-0.1,1.1c0,0.2,0,0.3,0.1,0.5c0.5,0.9,2.3,3,2.9,3.5
				c0,0,0.1,0.1,0.1,0.1c0.2,0.1,0.8,0.4,0.8,0.4L201.1,27.8C201.1,27.9,201.1,27.8,201.1,27.8z"/>
			<path class="st1" d="M198.5,15.2l1.1-0.4c0.1,0,0.1-0.1,0.2-0.1l0.6-1c0,0,0-0.1,0-0.1l-0.5,0c0,0-0.1,0-0.1,0
				c-0.4,0.1-1.1,0.4-1.4,0.6c0,0-0.1,0.1-0.1,0.1l-0.5,0.7c0,0,0,0-0.1,0.1l-0.4,0.1c0,0,0,0,0,0l0,0c0,0,0.7,0,1,0
				C198.2,15.3,198.3,15.3,198.5,15.2z"/>
			<path class="st1" d="M200.5,12.8c1.4-0.1,3-0.1,3.4-0.1c0.1,0,0.1,0,0.2,0l0.3,0.1c-0.7,0-2.4,0.2-3.1,0.3l0.2,0c0,0,0,0,0.1,0
				c0.5,0,1.5-0.1,2-0.1c0.1,0,0.2,0,0.3,0.1c0.3,0.1,0.8,0.3,1,0.4c0.1,0.1,0.2,0.1,0.3,0.1c0.2,0,0.6,0,0.8,0.1
				c0.1,0,0.1,0,0.2,0.1c0.5,0.3,1.2,0.7,1.6,1c0,0,0.1,0,0.1,0l0.2,0c0,0-0.7-0.7-1-1c0,0-0.1-0.1-0.1-0.1c-1-0.6-2-1.1-2.5-1.3
				c-0.1,0-0.2-0.1-0.3-0.1c-1.6-0.1-3.3-0.1-4.5,0c-0.1,0-0.2,0.1-0.2,0.1c0,0.1-0.1,0.2-0.2,0.3c0,0.1-0.1,0.1-0.1,0.2
				c-0.2,0.2-0.6,0.5-0.8,0.7c0,0,0,0,0,0c-0.1,0.1-0.4,0.3-0.5,0.3c0,0,0,0,0,0c0,0-0.1,0.2-0.1,0.2c1-0.6,2.2-1.3,2.7-1.4
				C200.4,12.8,200.5,12.8,200.5,12.8z"/>
			<path class="st1" d="M195.9,15.9C195.9,15.9,195.9,15.9,195.9,15.9c-0.9,0.7-1.4,1.1-1.6,1.2c-0.1,0.1-0.2,0.2-0.2,0.2
				c-0.1,0.1-0.1,0.1-0.1,0.1c0,0,0,0.1,0,0.1c0,0,0,0,0,0c0,0,0.1,0.1,0.1,0.1c0,0,0,0,0,0c0.1-0.1,0.3-0.2,0.5-0.4c0,0,0,0,0-0.1
				c0,0,0.1-0.1,0.1-0.2c0,0,0,0,0.1-0.1c0,0,0.1-0.1,0.1-0.1s-0.1,0.3-0.1,0.4c0,0,0,0.1,0,0.1c-0.1,0.1-0.4,0.4-0.5,0.5
				c0,0,0,0.1,0,0.2c0.1,0.2,0.3,0.4,0.5,0.6c0,0,0.1,0.1,0.1,0.1c0.1,0,0.1,0,0.1,0s0.1-0.5,0.2-0.7c0-0.1,0.1-0.1,0.1-0.1
				c0.6-0.1,1.8-0.4,1.8-0.4c-0.1-0.2-0.6-0.6-0.7-0.7c0,0-0.1-0.1-0.1-0.1c-0.2,0-0.7-0.1-0.7-0.1s0-0.1,0.1-0.1c0,0,0,0,0.1-0.1
				c0.6-0.2,1.5-0.6,2-0.8c0.1,0,0.2-0.1,0.2-0.2c0,0,0.1-0.1,0.2-0.2c0,0,0,0,0,0c0,0,0,0,0,0s-0.2,0.2-0.3,0.2
				c-0.1,0.1-0.1,0.1-0.2,0.1c-0.2,0-0.5,0.1-0.7,0.2c-0.1,0-0.1,0-0.1,0c0,0-0.1,0-0.1-0.1c0,0-0.1,0-0.1,0c-0.2,0-0.7,0.2-0.7,0.2
				s0.2-0.2,0.2-0.2c0,0,0,0,0.1,0c0.2-0.1,0.4-0.1,0.5-0.2c0,0,0.1,0,0.1-0.1c0-0.1,0-0.4,0.1-0.5c0,0,0-0.1,0-0.1
				c0.1-0.1,0.5-0.4,0.6-0.4c0,0,0,0,0,0l0.1-0.1c-0.3,0.2-0.7,0.4-1,0.6c-0.1,0.1-0.2,0.1-0.3,0.2c0,0,0,0,0,0
				C196.3,15.4,196,15.8,195.9,15.9z"/>
		</g>
		<g>
			<g>
				<path class="st1" d="M195.5,11c0-0.5,0-1,0-1.5c0.6-0.1,1.3-0.1,1.9-0.1c0,0.1,0,0.2,0,0.2c-0.6,0-1.1,0.1-1.7,0.1
					c0,0.1,0,0.3,0,0.4c0.5,0,1-0.1,1.5-0.1c0,0.1,0,0.2,0,0.2c-0.5,0-1,0.1-1.5,0.1c0,0.1,0,0.3,0,0.4c0.6,0,1.1-0.1,1.7-0.1
					c0,0.1,0,0.2,0,0.2C196.8,10.9,196.2,10.9,195.5,11z"/>
			</g>
			<g>
				<path class="st1" d="M192.9,11.3c0-0.5,0-1,0-1.5c0.5-0.1,1-0.1,1.5-0.2c0.1,0,0.2,0,0.2,0c0.1,0,0.1,0,0.2,0.1
					c0,0,0.1,0.1,0.1,0.1c0,0,0,0.1,0,0.2c0,0.1,0,0.1,0,0.2c0,0.1,0,0.1,0,0.2c0,0.1,0,0.1-0.1,0.2c0,0-0.1,0.1-0.2,0.1
					c-0.1,0-0.1,0-0.2,0.1c-0.4,0-0.9,0.1-1.3,0.1c0,0.2,0,0.3,0,0.5C193.1,11.3,193,11.3,192.9,11.3z M193.1,10.5
					c0.5-0.1,0.9-0.1,1.4-0.2c0.1,0,0.1-0.1,0.1-0.2c0-0.1,0-0.2,0-0.3c0-0.1-0.1-0.1-0.1-0.1c-0.5,0-0.9,0.1-1.4,0.2
					C193.1,10.2,193.1,10.4,193.1,10.5z"/>
			</g>
			<g>
				<path class="st1" d="M206.6,10.9c-0.1,0-0.2,0-0.2,0c-0.1,0-0.1,0-0.2-0.1c-0.1,0-0.1-0.1-0.1-0.2c0-0.1,0-0.1,0-0.2
					c0-0.2,0-0.5,0-0.7c0-0.1,0-0.1,0-0.2c0-0.1,0.1-0.1,0.1-0.1c0,0,0.1-0.1,0.2-0.1c0.1,0,0.1,0,0.2,0c0.3,0,0.7,0,1,0.1
					c0.1,0,0.2,0,0.2,0c0.1,0,0.1,0.1,0.2,0.1c0.1,0,0.1,0.1,0.1,0.2c0,0.1,0,0.1,0,0.2c0,0.2,0,0.5,0,0.7c0,0.1,0,0.1,0,0.2
					c0,0.1-0.1,0.1-0.1,0.1c0,0-0.1,0.1-0.2,0.1c-0.1,0-0.1,0-0.2,0C207.3,10.9,207,10.9,206.6,10.9z M206.5,9.6
					c-0.1,0-0.1,0.1-0.1,0.1c0,0.2,0,0.5,0,0.7c0,0.1,0.1,0.1,0.1,0.2c0,0,0.1,0,0.1,0c0,0,0,0,0,0c0.3,0,0.7,0,1,0.1c0,0,0,0,0,0
					c0,0,0.1,0,0.1,0c0.1,0,0.1-0.1,0.1-0.1c0-0.2,0-0.5,0-0.7c0-0.1-0.1-0.1-0.1-0.2C207.3,9.7,206.9,9.6,206.5,9.6z"/>
			</g>
			<g>
				<path class="st1" d="M209.6,11.2c0-0.4,0-0.8,0-1.3c-0.3,0-0.6-0.1-0.9-0.1c0-0.1,0-0.2,0-0.2c0.7,0.1,1.3,0.1,2,0.2
					c0,0.1,0,0.2,0,0.2c-0.3,0-0.6-0.1-0.9-0.1c0,0.4,0,0.8,0,1.3C209.7,11.2,209.6,11.2,209.6,11.2z"/>
			</g>
			<g>
				<path class="st1" d="M203.5,10.7c0-0.5,0-1,0-1.5c0.6,0,1.3,0,1.9,0.1c0,0.1,0,0.2,0,0.2c-0.6,0-1.1-0.1-1.7-0.1
					c0,0.1,0,0.3,0,0.4c0.5,0,1,0,1.5,0.1c0,0.1,0,0.2,0,0.2c-0.5,0-1,0-1.5-0.1c0,0.1,0,0.3,0,0.4c0.6,0,1.1,0,1.7,0.1
					c0,0.1,0,0.2,0,0.2C204.8,10.8,204.1,10.8,203.5,10.7z"/>
			</g>
			<g>
				<path class="st1" d="M201.4,10.7c-0.1,0-0.2,0-0.2,0c-0.1,0-0.1,0-0.2-0.1c-0.1,0-0.1-0.1-0.1-0.2c0-0.1,0-0.1,0-0.2
					c0-0.2,0-0.4,0-0.7c0-0.1,0-0.3,0.1-0.3c0.1-0.1,0.2-0.1,0.4-0.1c0.5,0,1,0,1.4,0c0,0.1,0,0.2,0,0.2c-0.5,0-1,0-1.5,0
					c-0.1,0-0.1,0.1-0.1,0.1c0,0.2,0,0.5,0,0.7c0,0,0,0,0,0c0,0.1,0.1,0.1,0.1,0.1c0,0,0.1,0,0.1,0c0,0,0,0,0,0c0.4,0,0.8,0,1.2,0
					c0-0.1,0-0.3,0-0.4c-0.3,0-0.5,0-0.8,0c0-0.1,0-0.2,0-0.2c0.4,0,0.7,0,1.1,0c0,0.3,0,0.6,0,0.9
					C202.4,10.7,201.9,10.7,201.4,10.7z"/>
			</g>
			<g>
				<path class="st1" d="M198.7,10.8c-0.1,0-0.2,0-0.2,0c-0.1,0-0.1,0-0.2-0.1c-0.1,0-0.1-0.1-0.1-0.1c0,0,0-0.1,0-0.2
					c0-0.4,0-0.7,0-1.1c0.1,0,0.2,0,0.2,0c0,0.4,0,0.7,0,1.1c0,0.1,0.1,0.1,0.1,0.1c0.4,0,0.8,0,1.3,0c0.1,0,0.1-0.1,0.1-0.1
					c0-0.4,0-0.7,0-1.1c0.1,0,0.2,0,0.2,0c0,0.4,0,0.7,0,1.1c0,0.1,0,0.1,0,0.2c0,0.1-0.1,0.1-0.1,0.2c0,0-0.1,0.1-0.2,0.1
					c-0.1,0-0.1,0-0.2,0C199.3,10.8,199,10.8,198.7,10.8z"/>
			</g>
		</g>
		<path class="st1" d="M212.6,8.1c-3.7-0.6-7.3-0.9-10.8-0.9c-3.5,0-7.1,0.3-10.8,0.9c-0.1,1.5-0.1,3.8,0,5.7
			c0.2,4.3,1.2,7.7,3,10.6c1.8,2.9,4.6,5.3,7.9,6.8c3.2-1.5,6-3.9,7.9-6.8c1.8-2.9,2.8-6.2,3-10.6C212.8,11.9,212.7,9.6,212.6,8.1z
			 M212.2,13.8c-0.2,4.3-1.2,7.5-2.9,10.4c-1.8,2.8-4.4,5.2-7.5,6.6c-3.1-1.4-5.7-3.8-7.5-6.6c-1.8-2.8-2.7-6.1-2.9-10.4
			c-0.1-1.4-0.1-3.1,0-5.3c3.5-0.6,7-0.9,10.4-0.9s7,0.3,10.4,0.9C212.3,10.7,212.3,12.4,212.2,13.8z"/>
	</g>
</g>
</svg>
